<svg width="29" height="30" viewBox="0 0 29 30" fill="none" xmlns="http://www.w3.org/2000/svg">
<path fill-rule="evenodd" clip-rule="evenodd" d="M9.4707 0H20.123C25.0249 0 29 4.19812 29 9.375V20.625C29 25.8019 25.0249 30 20.123 30H9.4707C4.56885 30 0.59375 25.8019 0.59375 20.625V9.375C0.59375 4.19812 4.56885 0 9.4707 0ZM20.1229 27.1875C23.5494 27.1875 26.3368 24.2437 26.3368 20.625V9.375C26.3368 5.75625 23.5494 2.8125 20.1229 2.8125H9.47058C6.04408 2.8125 3.25671 5.75625 3.25671 9.375V20.625C3.25671 24.2437 6.04408 27.1875 9.47058 27.1875H20.1229Z" fill="white"/>
<path fill-rule="evenodd" clip-rule="evenodd" d="M7.69531 15C7.69531 10.8581 10.875 7.5 14.7968 7.5C18.7186 7.5 21.8983 10.8581 21.8983 15C21.8983 19.1419 18.7186 22.5 14.7968 22.5C10.875 22.5 7.69531 19.1419 7.69531 15ZM10.3582 15C10.3582 17.5837 12.3501 19.6875 14.7966 19.6875C17.2431 19.6875 19.2351 17.5837 19.2351 15C19.2351 12.4144 17.2431 10.3125 14.7966 10.3125C12.3501 10.3125 10.3582 12.4144 10.3582 15Z" fill="white"/>
<ellipse cx="22.4307" cy="6.93736" rx="0.94635" ry="0.999375" fill="white"/>
</svg>
