<svg width="29" height="26" viewBox="0 0 29 26" fill="none" xmlns="http://www.w3.org/2000/svg">
<path d="M28.9453 3.61268C27.889 4.10205 26.7634 4.42643 25.5898 4.58393C26.7971 3.82268 27.7185 2.62643 28.1517 1.18455C27.0261 1.8933 25.7833 2.39393 24.4589 2.6733C23.3901 1.47143 21.8668 0.727051 20.2051 0.727051C16.981 0.727051 14.3853 3.4908 14.3853 6.87893C14.3853 7.36643 14.4244 7.83518 14.5203 8.28142C9.67877 8.03205 5.39476 5.58143 2.51685 1.8483C2.01441 2.76893 1.7197 3.82268 1.7197 4.95705C1.7197 7.08705 2.7583 8.97517 4.30644 10.0683C3.37081 10.0496 2.45293 9.76268 1.67531 9.3108C1.67531 9.32955 1.67531 9.35393 1.67531 9.3783C1.67531 12.3671 3.69393 14.8496 6.34104 15.4214C5.86701 15.5583 5.35037 15.6239 4.8142 15.6239C4.44137 15.6239 4.06499 15.6014 3.71169 15.5189C4.46623 17.9545 6.60735 19.7452 9.15326 19.8033C7.17192 21.4402 4.65619 22.4264 1.93274 22.4264C1.45516 22.4264 0.997113 22.4039 0.539062 22.342C3.11871 24.0989 6.17593 25.102 9.47283 25.102C20.1891 25.102 26.0479 15.727 26.0479 7.6008C26.0479 7.32893 26.039 7.06642 26.0266 6.8058C27.1823 5.93955 28.1535 4.85768 28.9453 3.61268Z" fill="white"/>
</svg>
